HIERARCHY
ROOT Hips
{
	OFFSET 0.000000 35.082581 0.000000
	CHANNELS 6 Xposition Yposition Zposition Xrotation Yrotation Zrotation 
	JOINT Spine
	{
		OFFSET 0.000000 6.876099 0.125700
		CHANNELS 3 Xrotation Yrotation Zrotation
		JOINT Spine1
		{
			OFFSET 0.000000 5.730043 0.104720
			CHANNELS 3 Xrotation Yrotation Zrotation
			JOINT Spine1_split
			{
				OFFSET 0.000000 5.730043 0.104720
				CHANNELS 3 Xrotation Yrotation Zrotation
				JOINT Spine2
				{
					OFFSET 0.000000 5.730043 0.104720
					CHANNELS 3 Xrotation Yrotation Zrotation
					JOINT Neck
					{
						OFFSET 0.000000 10.314075 0.188496
						CHANNELS 3 Xrotation Yrotation Zrotation
						JOINT Head
						{
							OFFSET 0.000000 7.643700 -2.377400
							CHANNELS 3 Xrotation Yrotation Zrotation
							JOINT HeadTop_End
							{
								OFFSET 0.000000 43.788605 -13.619600
								CHANNELS 3 Xrotation Yrotation Zrotation
								End Site
								{
									OFFSET 0.000000 0.000000 0.000000
								}
							}
						}
					}
					JOINT LeftShoulder
					{
						OFFSET 2.196100 4.412489 0.087492
						CHANNELS 3 Xrotation Yrotation Zrotation
						JOINT LeftShoulder_split
						{
							OFFSET 2.196100 4.412489 0.087492
							CHANNELS 3 Xrotation Yrotation Zrotation
							JOINT LeftArm
							{
								OFFSET 8.771219 -2.981674 -0.026999
								CHANNELS 3 Xrotation Yrotation Zrotation
								JOINT LeftForeArm
								{
									OFFSET 8.512804 0.000000 -0.000000
									CHANNELS 3 Xrotation Yrotation Zrotation
									JOINT LeftHand
									{
										OFFSET 18.484802 0.000000 -0.000000
										CHANNELS 3 Xrotation Yrotation Zrotation
										JOINT LeftHandThumb1
										{
											OFFSET 2.499420 -1.158070 2.653252
											CHANNELS 3 Xrotation Yrotation Zrotation
											JOINT LeftHandThumb2
											{
												OFFSET 2.370079 -1.368366 1.368366
												CHANNELS 3 Xrotation Yrotation Zrotation
												JOINT LeftHandThumb3
												{
													OFFSET 2.676727 -1.545410 1.545409
													CHANNELS 3 Xrotation Yrotation Zrotation
													JOINT LeftHandThumb4
													{
														OFFSET 1.692226 -0.977005 0.977007
														CHANNELS 3 Xrotation Yrotation Zrotation
														End Site
														{
															OFFSET 0.000000 0.000000 0.000000
														}
													}
												}
											}
										}
										JOINT LeftHandIndex1
										{
											OFFSET 7.924831 -0.457527 2.345128
											CHANNELS 3 Xrotation Yrotation Zrotation
											JOINT LeftHandIndex2
											{
												OFFSET 3.643303 0.000000 0.000000
												CHANNELS 3 Xrotation Yrotation Zrotation
												JOINT LeftHandIndex3
												{
													OFFSET 3.810799 0.000000 0.000000
													CHANNELS 3 Xrotation Yrotation Zrotation
													JOINT LeftHandIndex4
													{
														OFFSET 2.403702 0.000000 0.000000
														CHANNELS 3 Xrotation Yrotation Zrotation
														End Site
														{
															OFFSET 0.000000 0.000000 0.000000
														}
													}
												}
											}
										}
										JOINT LeftHandMiddle1
										{
											OFFSET 8.563995 0.000000 -0.000000
											CHANNELS 3 Xrotation Yrotation Zrotation
											JOINT LeftHandMiddle2
											{
												OFFSET 3.861618 0.000000 0.000000
												CHANNELS 3 Xrotation Yrotation Zrotation
												JOINT LeftHandMiddle3
												{
													OFFSET 3.701603 0.000000 0.000000
													CHANNELS 3 Xrotation Yrotation Zrotation
													JOINT LeftHandMiddle4
													{
														OFFSET 2.322544 0.000000 0.000000
														CHANNELS 3 Xrotation Yrotation Zrotation
														End Site
														{
															OFFSET 0.000000 0.000000 0.000000
														}
													}
												}
											}
										}
										JOINT LeftHandRing1
										{
											OFFSET 8.426460 -0.424637 -3.286992
											CHANNELS 3 Xrotation Yrotation Zrotation
											JOINT LeftHandRing2
											{
												OFFSET 3.126408 0.000000 0.000000
												CHANNELS 3 Xrotation Yrotation Zrotation
												JOINT LeftHandRing3
												{
													OFFSET 3.085026 0.000000 0.000000
													CHANNELS 3 Xrotation Yrotation Zrotation
													JOINT LeftHandRing4
													{
														OFFSET 1.644005 0.000000 0.000000
														CHANNELS 3 Xrotation Yrotation Zrotation
														End Site
														{
															OFFSET 0.000000 0.000000 0.000000
														}
													}
												}
											}
										}
									}
								}
							}
						}
					}
					JOINT RightShoulder
					{
						OFFSET -2.196100 4.412496 0.070690
						CHANNELS 3 Xrotation Yrotation Zrotation
						JOINT RightShoulder_split
						{
							OFFSET -2.196100 4.412496 0.070690
							CHANNELS 3 Xrotation Yrotation Zrotation
							JOINT RightArm
							{
								OFFSET -8.771282 -2.981682 -0.094208
								CHANNELS 3 Xrotation Yrotation Zrotation
								JOINT RightForeArm
								{
									OFFSET -8.494598 0.000000 0.000000
									CHANNELS 3 Xrotation Yrotation Zrotation
									JOINT RightHand
									{
										OFFSET -18.483803 0.000000 0.000001
										CHANNELS 3 Xrotation Yrotation Zrotation
										JOINT RightHandThumb1
										{
											OFFSET -2.527351 -1.008072 2.575253
											CHANNELS 3 Xrotation Yrotation Zrotation
											JOINT RightHandThumb2
											{
												OFFSET -2.321518 -1.340328 1.340329
												CHANNELS 3 Xrotation Yrotation Zrotation
												JOINT RightHandThumb3
												{
													OFFSET -2.657753 -1.534454 1.534455
													CHANNELS 3 Xrotation Yrotation Zrotation
													JOINT RightHandThumb4
													{
														OFFSET -1.807510 -1.043568 1.043567
														CHANNELS 3 Xrotation Yrotation Zrotation
														End Site
														{
															OFFSET 0.000000 0.000000 0.000000
														}
													}
												}
											}
										}
										JOINT RightHandIndex1
										{
											OFFSET -8.811420 0.015533 2.887987
											CHANNELS 3 Xrotation Yrotation Zrotation
											JOINT RightHandIndex2
											{
												OFFSET -3.537502 0.000000 0.000000
												CHANNELS 3 Xrotation Yrotation Zrotation
												JOINT RightHandIndex3
												{
													OFFSET -3.356201 0.000000 0.000000
													CHANNELS 3 Xrotation Yrotation Zrotation
													JOINT RightHandIndex4
													{
														OFFSET -1.933098 0.000000 0.000000
														CHANNELS 3 Xrotation Yrotation Zrotation
														End Site
														{
															OFFSET 0.000000 0.000000 0.000000
														}
													}
												}
											}
										}
										JOINT RightHandMiddle1
										{
											OFFSET -8.178135 0.000000 0.000000
											CHANNELS 3 Xrotation Yrotation Zrotation
											JOINT RightHandMiddle2
											{
												OFFSET -3.901302 0.000000 0.000000
												CHANNELS 3 Xrotation Yrotation Zrotation
												JOINT RightHandMiddle3
												{
													OFFSET -3.909599 0.000000 0.000000
													CHANNELS 3 Xrotation Yrotation Zrotation
													JOINT RightHandMiddle4
													{
														OFFSET -2.376003 0.000000 0.000000
														CHANNELS 3 Xrotation Yrotation Zrotation
														End Site
														{
															OFFSET 0.000000 0.000000 0.000000
														}
													}
												}
											}
										}
										JOINT RightHandRing1
										{
											OFFSET -7.559013 0.014137 -2.865403
											CHANNELS 3 Xrotation Yrotation Zrotation
											JOINT RightHandRing2
											{
												OFFSET -3.449306 0.000000 0.000000
												CHANNELS 3 Xrotation Yrotation Zrotation
												JOINT RightHandRing3
												{
													OFFSET -3.362106 0.000000 0.000000
													CHANNELS 3 Xrotation Yrotation Zrotation
													JOINT RightHandRing4
													{
														OFFSET -2.076401 0.000000 0.000000
														CHANNELS 3 Xrotation Yrotation Zrotation
														End Site
														{
															OFFSET 0.000000 0.000000 0.000000
														}
													}
												}
											}
										}
									}
								}
							}
						}
					}
				}
			}
		}
	}
	JOINT LeftUpLeg
	{
		OFFSET 10.205400 -3.823500 0.155100
		CHANNELS 3 Xrotation Yrotation Zrotation
		JOINT LeftLeg
		{
			OFFSET 0.708757 -12.982077 0.567790
			CHANNELS 3 Xrotation Yrotation Zrotation
			JOINT LeftFoot
			{
				OFFSET -0.708756 -10.717838 -2.184338
				CHANNELS 3 Xrotation Yrotation Zrotation
				JOINT LeftToeBase
				{
					OFFSET 0.108149 -7.191104 7.560241
					CHANNELS 3 Xrotation Yrotation Zrotation
					JOINT LeftToe_End
					{
						OFFSET 0.070230 0.081724 4.490308
						CHANNELS 3 Xrotation Yrotation Zrotation
						End Site
						{
							OFFSET 0.000000 0.000000 0.000000
						}
					}
				}
			}
		}
	}
	JOINT RightUpLeg
	{
		OFFSET -10.205400 -3.823500 0.005500
		CHANNELS 3 Xrotation Yrotation Zrotation
		JOINT RightLeg
		{
			OFFSET -0.708756 -12.982134 0.610632
			CHANNELS 3 Xrotation Yrotation Zrotation
			JOINT RightFoot
			{
				OFFSET 0.708754 -10.717769 -1.945823
				CHANNELS 3 Xrotation Yrotation Zrotation
				JOINT RightToeBase
				{
					OFFSET -0.108140 -7.191069 7.372968
					CHANNELS 3 Xrotation Yrotation Zrotation
					JOINT RightToe_End
					{
						OFFSET -0.070227 0.081735 4.479403
						CHANNELS 3 Xrotation Yrotation Zrotation
						End Site
						{
							OFFSET 0.000000 0.000000 0.000000
						}
					}
				}
			}
		}
	}
}
MOTION
Frames: 4
Frame Time: 0.016667
-0.149996 32.044880 6.277425 170.235963 -60.377643 167.191406 10.604464 -0.960633 -0.051143 -2.398477 -2.056349 2.718429 0.000000 0.000000 0.000000 -2.356987 -1.768255 2.869753 -3.888771 19.882602 3.910875 -0.526662 21.441470 -3.837599 -0.000000 -0.000000 -0.000000 0.705981 3.275480 -11.637415 0.000000 0.000000 0.000000 -4.210797 -8.950343 -59.610592 5.910695 -15.225813 -6.974016 -0.347272 0.743000 15.812390 -4.200358 10.157368 11.960008 6.085754 10.556480 -0.157847 1.966904 8.748002 4.028421 -0.000001 -0.000002 -0.000000 2.131781 -0.392593 -13.293934 -0.004693 0.197231 -18.934959 0.035587 0.133865 -16.180961 0.000000 0.000000 -0.000001 -1.008601 1.345601 -17.617324 0.069212 0.461244 -24.715279 0.023452 0.041118 -14.668716 -0.000001 -0.000003 -0.000001 -2.701882 4.172410 -17.242669 -0.035263 0.237672 -29.248601 0.095421 0.488149 -17.780449 -0.000000 -0.000000 0.000001 0.703466 1.524167 16.490390 0.000000 0.000000 0.000000 17.133169 25.354799 44.976229 15.517515 24.279272 -5.951872 -24.526017 1.149793 -17.348488 -0.473553 -9.226558 -6.063016 7.388323 -11.608397 1.218089 1.114544 -8.666570 -5.080449 -0.000000 -0.000003 0.000001 2.309457 -3.333393 8.546097 0.013960 -0.262616 18.590062 0.032976 -0.191437 14.524197 -0.000000 0.000000 0.000001 -1.980197 -5.331751 13.722412 0.108082 -0.649756 26.760628 0.021267 -0.055470 11.780382 -0.000001 -0.000001 0.000003 -4.943415 -9.642940 11.063729 -0.035464 -0.347572 32.710934 0.124833 -0.708753 15.585512 0.000001 0.000000 0.000000 5.605908 13.572547 21.419014 23.941106 17.605050 0.694305 -17.921016 13.032979 -32.071642 -7.172441 1.814730 -2.983393 0.000000 0.000001 0.000000 -30.284144 -16.769101 -21.445302 33.877571 -13.620684 6.306411 -6.559583 -1.943208 11.102233 -0.871126 -11.160240 6.053843 -0.000001 0.000001 -0.000001 
-0.140208 31.964329 5.889983 170.562050 -58.603276 167.609892 10.498966 -1.062824 -0.083464 -2.304553 -2.290394 3.051409 0.000000 0.000000 0.000000 -2.253757 -1.967696 3.217101 -4.003678 18.093287 2.764204 -1.209541 19.088000 -2.532615 -0.000000 -0.000000 -0.000000 0.768059 3.463234 -12.577523 0.000000 0.000000 0.000000 -3.044102 -9.903333 -59.428315 7.177355 -16.260066 -6.053564 -3.592275 1.052240 15.956454 -4.274191 10.467627 11.892676 5.838982 10.360600 0.041999 2.116434 8.726472 3.819020 -0.000001 0.000002 -0.000000 2.051724 -0.987327 -14.446081 -0.008090 0.184417 -19.250997 0.033854 0.123549 -16.750293 -0.000001 -0.000001 0.000000 -0.876463 0.677753 -18.735052 0.063307 0.418335 -24.711910 0.023230 0.037739 -15.616572 0.000003 -0.000000 -0.000001 -2.394410 3.204071 -18.922870 -0.032568 0.215867 -29.133410 0.094239 0.441456 -18.750184 -0.000000 0.000002 0.000001 0.701271 1.355155 15.823361 0.000000 0.000000 0.000000 16.534515 25.640295 45.312704 15.474292 24.341838 -5.985862 -24.226865 1.766180 -17.288049 -0.475927 -9.284851 -6.057582 7.374038 -11.607333 1.199329 1.111012 -8.621560 -5.054194 -0.000003 -0.000002 0.000001 2.297466 -3.261830 8.600785 0.014283 -0.263301 18.582605 0.033265 -0.192033 14.537656 0.000000 -0.000000 -0.000000 -1.979942 -5.246751 13.763550 0.107337 -0.646757 26.717306 0.021636 -0.055573 11.815564 0.000000 -0.000000 -0.000000 -4.937376 -9.523906 11.140132 -0.035756 -0.348089 32.646925 0.125627 -0.709541 15.611345 -0.000003 0.000000 0.000002 6.715082 13.575811 21.859563 24.312354 18.714343 0.875202 -15.786778 13.280041 -34.565934 -7.896873 1.479646 -2.532909 -0.000000 0.000003 -0.000000 -33.067254 -20.025792 -21.182170 34.653856 -10.245586 4.523063 -6.443679 -0.749395 9.769175 -0.662052 -10.704477 6.053312 -0.000000 -0.000001 0.000001 
-0.131788 31.892868 5.501436 171.021257 -56.945592 168.103619 10.601825 -1.176270 0.033151 -2.282219 -2.483321 3.172532 0.000000 0.000000 0.000000 -2.225454 -2.139752 3.353373 -4.312743 16.256600 2.263038 -1.323578 17.025312 -2.023880 -0.000000 -0.000000 0.000000 0.793936 3.860552 -12.834765 0.000000 0.000000 0.000000 -2.590072 -10.725972 -59.685314 6.796626 -15.986946 -5.978559 -4.516848 0.869620 16.178121 -4.350495 10.787252 11.824447 5.585210 10.158493 0.246098 2.270161 8.703479 3.603667 -0.000002 -0.000002 -0.000000 1.949223 -1.594975 -15.631610 -0.011640 0.171266 -19.576150 0.031691 0.112905 -17.335946 -0.000003 0.000002 -0.000001 -0.762994 -0.013266 -19.880391 0.057176 0.374166 -24.708057 0.022753 0.033637 -16.592160 0.000002 0.000001 -0.000001 -2.128889 2.191441 -20.636090 -0.029276 0.193455 -29.015566 0.090461 0.393557 -19.748485 -0.000001 -0.000001 0.000001 0.708326 1.125626 15.555367 0.000000 0.000000 0.000000 16.276319 26.099172 45.427646 15.667817 24.549512 -6.236655 -23.970009 2.169554 -17.977331 -0.478585 -9.343075 -6.052151 7.359754 -11.606356 1.180564 1.107559 -8.576583 -5.028090 0.000001 -0.000002 -0.000002 2.285644 -3.191680 8.655802 0.014417 -0.263769 18.575587 0.033465 -0.192406 14.551493 -0.000000 -0.000001 -0.000001 -1.980058 -5.161938 13.801824 0.106598 -0.643611 26.672594 0.021850 -0.055547 11.848859 -0.000001 -0.000001 -0.000000 -4.933556 -9.403503 11.210511 -0.036022 -0.348470 32.579183 0.126236 -0.710002 15.633338 -0.000001 0.000000 -0.000001 7.504853 13.986958 22.619317 24.969901 19.132109 1.001529 -13.406244 13.232622 -37.124059 -8.894860 1.108339 -1.632813 0.000000 -0.000001 0.000000 -34.971532 -22.148205 -20.597093 35.452380 -7.854593 3.133024 -6.431007 0.168704 8.637518 -0.484712 -10.324850 5.923604 0.000000 -0.000000 0.000000 
-0.115688 31.823219 5.084103 171.996021 -55.137972 168.918556 11.006429 -1.219616 0.651538 -2.311409 -2.458904 2.656137 0.000000 0.000000 0.000000 -2.266522 -2.142644 2.841960 -4.723530 14.069388 3.187258 -1.044572 15.252417 -2.299040 -0.000000 -0.000001 -0.000000 0.698511 3.486592 -11.417944 0.000000 0.000000 0.000000 -2.788111 -10.705280 -61.013581 6.324323 -14.736744 -5.900935 -4.856887 0.224948 16.321937 -4.428147 11.111364 11.756505 5.328286 9.953011 0.451399 2.425797 8.679519 3.385532 0.000003 0.000002 0.000003 1.824238 -2.206776 -16.833162 -0.015544 0.158003 -19.905601 0.029288 0.102171 -17.929358 -0.000001 -0.000001 -0.000001 -0.671714 -0.717653 -21.035721 0.051059 0.329381 -24.704157 0.022064 0.029499 -17.580613 0.000002 0.000003 0.000001 -1.913196 1.149664 -22.356136 -0.025949 0.170689 -28.896659 0.084932 0.345215 -20.760312 -0.000002 0.000001 -0.000000 0.748275 0.713188 16.348324 0.000000 0.000000 0.000000 16.070856 26.382594 45.353546 15.509613 24.754760 -6.377426 -23.526474 2.543102 -18.509819 -0.481030 -9.401244 -6.046665 7.345464 -11.605490 1.161665 1.104119 -8.531609 -5.001962 0.000000 -0.000000 0.000001 2.274409 -3.123224 8.711375 0.014455 -0.264012 18.568817 0.033584 -0.192436 14.565404 -0.000001 0.000000 -0.000001 -1.980344 -5.077277 13.837597 0.105877 -0.640512 26.625884 0.021962 -0.055359 11.880501 0.000002 0.000000 0.000000 -4.930951 -9.281455 11.275159 -0.036162 -0.348581 32.507479 0.126644 -0.710116 15.651554 0.000001 0.000001 0.000002 8.635392 15.015046 23.570397 25.321232 19.232585 1.107718 -10.797826 12.856663 -39.779995 -10.645754 0.746391 -0.742084 0.000000 -0.000000 -0.000000 -35.551961 -22.254647 -19.223306 36.189976 -6.772883 2.414423 -6.131848 0.511991 7.998030 -0.370730 -10.312640 5.945450 0.000000 -0.000000 -0.000001 
